<!-- Generated by readme-aura https://github.com/collectioneur/readme-aura -->
<svg width="800" height="96" viewBox="0 0 800 96" xmlns="http://www.w3.org/2000/svg"><defs><clipPath id="satori_bc-id"><path x="0" y="0" width="800" height="96" d="M12,0 h776 a12,12 0 0 1 12,12 v72 a12,12 0 0 1 -12,12 h-776 a12,12 0 0 1 -12,-12 v-72 a12,12 0 0 1 12,-12"/></clipPath></defs><clipPath id="satori_cp-id"><path x="0" y="0" width="800" height="96" d="M12,0 h776 a12,12 0 0 1 12,12 v72 a12,12 0 0 1 -12,12 h-776 a12,12 0 0 1 -12,-12 v-72 a12,12 0 0 1 12,-12"/></clipPath><mask id="satori_om-id"><rect x="1" y="1" width="798" height="94" fill="#fff"/><path width="800" height="96" fill="none" stroke="#000" stroke-width="2" d="M3.5150000000000006,3.5150000000000006 A12,12 0 0 1 12,0 h776 a12,12 0 0 1 12,12 v72 a12,12 0 0 1 -12,12 h-776 a12,12 0 0 1 -12,-12 v-72 A12,12 0 0 1 3.5150000000000006,3.5150000000000006"/></mask><path x="0" y="0" width="800" height="96" fill="#0b0f0c" d="M12,0 h776 a12,12 0 0 1 12,12 v72 a12,12 0 0 1 -12,12 h-776 a12,12 0 0 1 -12,-12 v-72 a12,12 0 0 1 12,-12"/><path width="800" height="96" clip-path="url(#satori_bc-id)" fill="none" stroke="#263229" stroke-width="2" d="M3.5150000000000006,3.5150000000000006 A12,12 0 0 1 12,0 h776 a12,12 0 0 1 12,12 v72 a12,12 0 0 1 -12,12 h-776 a12,12 0 0 1 -12,-12 v-72 A12,12 0 0 1 3.5150000000000006,3.5150000000000006"/><defs><clipPath id="satori_bc-id-0" clip-path="url(#satori_cp-id)"><rect x="1" y="1" width="400" height="94"/></clipPath></defs><mask id="satori_om-id-0"><rect x="1" y="1" width="399" height="94" fill="#fff" mask="url(#satori_om-id)"/><path width="400" height="94" fill="none" stroke="#000" stroke-width="2" d="M401,1 A0,0 0 0 1 401,1 v94 A0,0 0 0 1 401,95"/></mask><path width="400" height="94" clip-path="url(#satori_bc-id-0)" fill="none" stroke="#263229" stroke-width="2" d="M401,1 A0,0 0 0 1 401,1 v94 A0,0 0 0 1 401,95"/><mask id="satori_om-id-0-0"><rect x="29" y="31" width="343" height="13" fill="#fff" mask="url(#satori_om-id)"/></mask><g mask="url(#satori_om-id)" clip-path="url(#satori_cp-id)"><path fill="#6e7f72" d="M35.1 42L29.7 42L29.7 34.0L35.1 34.0L35.1 35.4L31.4 35.4L31.4 37.3L34.8 37.3L34.8 38.6L31.4 38.6L31.4 40.6L35.1 40.6L35.1 42ZM38.8 42L37.2 42L37.2 36.0L38.7 36.0L38.7 37.2Q38.9 36.8 39.0 36.6L39.0 36.6Q39.3 36.2 39.7 36.1Q40.0 35.9 40.4 35.9L40.4 35.9Q41.1 35.9 41.5 36.3L41.5 36.3Q41.8 36.6 42.0 37.2L42.0 37.2Q42.1 36.9 42.3 36.6L42.3 36.6Q42.6 36.3 43.0 36.1Q43.5 35.9 43.9 35.9L43.9 35.9Q44.5 35.9 44.9 36.1Q45.3 36.4 45.6 36.8Q45.8 37.3 45.8 38.0L45.8 38.0L45.8 42L44.2 42L44.2 38.3Q44.2 37.7 43.9 37.5Q43.7 37.3 43.3 37.3L43.3 37.3Q43.0 37.3 42.7 37.4Q42.5 37.5 42.4 37.8Q42.3 38.0 42.3 38.3L42.3 38.3L42.3 42L40.7 42L40.7 38.2Q40.7 37.8 40.5 37.5Q40.2 37.3 39.8 37.3L39.8 37.3Q39.5 37.3 39.3 37.4Q39.0 37.5 38.9 37.8Q38.8 38.0 38.8 38.4L38.8 38.4L38.8 42ZM49.7 42.1L49.7 42.1Q49.1 42.1 48.7 41.9Q48.2 41.7 47.9 41.3Q47.7 40.9 47.7 40.3L47.7 40.3Q47.7 39.8 47.9 39.5Q48.1 39.1 48.4 38.9Q48.7 38.7 49.1 38.6Q49.5 38.5 50.0 38.5L50.0 38.5Q50.5 38.4 50.8 38.4Q51.1 38.3 51.3 38.2Q51.4 38.1 51.4 37.9L51.4 37.9L51.4 37.9Q51.4 37.7 51.3 37.5Q51.2 37.3 51.0 37.2Q50.8 37.1 50.5 37.1L50.5 37.1Q50.2 37.1 49.9 37.2Q49.7 37.3 49.5 37.5Q49.4 37.6 49.3 37.8L49.3 37.8L47.9 37.6Q48.0 37.0 48.4 36.7Q48.7 36.3 49.3 36.1Q49.8 35.9 50.5 35.9L50.5 35.9Q51.0 35.9 51.4 36.0Q51.9 36.2 52.2 36.4Q52.6 36.6 52.8 37.0Q53.0 37.4 53.0 38.0L53.0 38.0L53.0 42L51.5 42L51.5 41.2L51.4 41.2Q51.3 41.4 51.1 41.7Q50.8 41.9 50.5 42.0Q50.1 42.1 49.7 42.1ZM50.1 41.0L50.1 41.0Q50.5 41.0 50.8 40.8Q51.1 40.7 51.3 40.4Q51.4 40.2 51.4 39.9L51.4 39.9L51.4 39.2Q51.3 39.3 51.2 39.3Q51.1 39.3 50.9 39.4Q50.7 39.4 50.5 39.4Q50.4 39.5 50.2 39.5L50.2 39.5Q49.9 39.5 49.7 39.6Q49.5 39.7 49.4 39.9Q49.2 40.0 49.2 40.3L49.2 40.3Q49.2 40.5 49.4 40.7Q49.5 40.8 49.7 40.9Q49.9 41.0 50.1 41.0ZM56.8 42L55.2 42L55.2 36.0L56.8 36.0L56.8 42ZM56.0 35.2L56.0 35.2Q55.6 35.2 55.4 35.0Q55.1 34.7 55.1 34.4L55.1 34.4Q55.1 34.0 55.4 33.8Q55.6 33.6 56.0 33.6L56.0 33.6Q56.4 33.6 56.6 33.8Q56.9 34.0 56.9 34.4L56.9 34.4Q56.9 34.7 56.6 35.0Q56.4 35.2 56.0 35.2ZM59.0 34.0L60.6 34.0L60.6 42L59.0 42L59.0 34.0Z "/></g><mask id="satori_om-id-0-1"><rect x="29" y="50" width="343" height="16" fill="#fff" mask="url(#satori_om-id)"/></mask><g mask="url(#satori_om-id)" clip-path="url(#satori_cp-id)"><path fill="#b7c3b9" d="M29.8 65.5L29.8 65.5L30.2 64.1L30.4 64.1Q30.8 64.2 31.1 64.2Q31.4 64.1 31.6 64.0Q31.8 63.8 31.8 63.4L31.8 63.4L31.9 63.0L29.2 55.9L31.2 55.9L32.4 59.6Q32.6 60.3 32.8 61.0L32.8 61.0Q32.8 61.2 32.9 61.5L32.9 61.5Q32.9 61.2 33.0 61.0L33.0 61.0Q33.2 60.3 33.4 59.6L33.4 59.6L34.6 55.9L36.6 55.9L33.6 63.8Q33.4 64.4 33.1 64.8Q32.7 65.2 32.2 65.5Q31.7 65.7 31.0 65.7L31.0 65.7Q30.6 65.7 30.3 65.7Q30.0 65.6 29.8 65.5ZM40.8 63.1L40.8 63.1Q39.7 63.1 39.0 62.7Q38.2 62.2 37.8 61.4Q37.3 60.6 37.3 59.5L37.3 59.5Q37.3 58.4 37.8 57.6Q38.2 56.7 39.0 56.3Q39.7 55.8 40.8 55.8L40.8 55.8Q41.9 55.8 42.7 56.3Q43.4 56.7 43.9 57.6Q44.3 58.4 44.3 59.5L44.3 59.5Q44.3 60.6 43.9 61.4Q43.4 62.2 42.7 62.7Q41.9 63.1 40.8 63.1ZM40.8 61.6L40.8 61.6Q41.3 61.6 41.7 61.4Q42.0 61.1 42.2 60.6Q42.3 60.1 42.3 59.5L42.3 59.5Q42.3 58.8 42.2 58.4Q42.0 57.9 41.7 57.6Q41.3 57.3 40.8 57.3L40.8 57.3Q40.3 57.3 40.0 57.6Q39.6 57.9 39.5 58.4Q39.3 58.8 39.3 59.5L39.3 59.5Q39.3 60.1 39.5 60.6Q39.6 61.1 40.0 61.4Q40.3 61.6 40.8 61.6ZM48.1 63.1L48.1 63.1Q47.3 63.1 46.8 62.8Q46.2 62.4 45.9 61.8Q45.6 61.2 45.6 60.4L45.6 60.4L45.6 55.9L47.5 55.9L47.5 60.1Q47.5 60.7 47.9 61.1Q48.2 61.5 48.8 61.5L48.8 61.5Q49.2 61.5 49.5 61.3Q49.8 61.1 50.0 60.8Q50.2 60.5 50.2 60.0L50.2 60.0L50.2 55.9L52.1 55.9L52.1 63L50.3 63L50.3 61.5Q50.0 62.2 49.5 62.6L49.5 62.6Q48.9 63.1 48.1 63.1ZM55.6 63L53.7 63L53.7 55.9L55.5 55.9L55.5 57.1L55.6 57.1Q55.8 56.5 56.3 56.1Q56.7 55.8 57.3 55.8L57.3 55.8Q57.5 55.8 57.7 55.8Q57.8 55.8 58.0 55.9L58.0 55.9L58.0 57.6Q57.8 57.5 57.6 57.5Q57.3 57.5 57.1 57.5L57.1 57.5Q56.7 57.5 56.3 57.7Q56.0 57.9 55.8 58.2Q55.6 58.5 55.6 59.0L55.6 59.0L55.6 63ZM64.9 65.7L64.9 65.7Q63.5 65.7 62.3 65.3Q61.2 64.9 60.4 64.1Q59.6 63.4 59.2 62.3Q58.8 61.2 58.8 59.7L58.8 59.7Q58.8 58.4 59.2 57.2Q59.6 56.1 60.4 55.3Q61.1 54.5 62.3 54.0Q63.4 53.6 64.9 53.6L64.9 53.6Q66.3 53.6 67.3 54.0Q68.4 54.4 69.2 55.2Q70.0 55.9 70.4 56.9Q70.8 57.9 70.8 59.1L70.8 59.1Q70.8 59.9 70.7 60.5Q70.5 61.2 70.2 61.7Q69.9 62.3 69.4 62.5Q68.9 62.8 68.2 62.8L68.2 62.8Q67.8 62.8 67.4 62.7Q67.0 62.6 66.8 62.4Q66.5 62.1 66.5 61.8L66.5 61.8L66.4 61.8Q66.2 62.2 65.7 62.5Q65.2 62.8 64.5 62.8L64.5 62.8Q63.6 62.8 63.0 62.4Q62.4 62.0 62.1 61.3Q61.8 60.6 61.8 59.7L61.8 59.7Q61.8 58.7 62.1 58.0Q62.5 57.3 63.1 56.9Q63.7 56.5 64.5 56.5L64.5 56.5Q65.2 56.5 65.6 56.7Q66.1 56.9 66.2 57.3L66.2 57.3L66.3 57.3L66.3 56.6L67.6 56.6L67.6 60.9Q67.6 61.2 67.8 61.4Q67.9 61.6 68.2 61.6L68.2 61.6Q68.6 61.6 68.8 61.3Q69.1 61.1 69.2 60.5Q69.3 60.0 69.3 59.2L69.3 59.2Q69.3 58.3 69.0 57.5Q68.7 56.7 68.2 56.2Q67.7 55.6 66.9 55.4Q66.1 55.1 65.0 55.1L65.0 55.1Q63.9 55.1 63.0 55.4Q62.1 55.7 61.6 56.3Q61.0 56.9 60.7 57.7Q60.4 58.6 60.4 59.7L60.4 59.7Q60.4 60.8 60.7 61.6Q61.0 62.5 61.6 63.1Q62.2 63.7 63.1 64.0Q63.9 64.3 65.1 64.3L65.1 64.3Q65.6 64.3 66.1 64.2Q66.5 64.1 66.9 64.0Q67.3 63.9 67.6 63.8L67.6 63.8L68.1 65.1Q67.8 65.2 67.3 65.4Q66.8 65.5 66.2 65.6Q65.6 65.7 64.9 65.7ZM64.7 61.5L64.7 61.5Q65.2 61.5 65.5 61.3Q65.9 61.1 66.1 60.7Q66.2 60.2 66.2 59.6L66.2 59.6Q66.2 59.0 66.0 58.7Q65.9 58.3 65.5 58.1Q65.2 57.9 64.7 57.9L64.7 57.9Q64.2 57.9 63.9 58.2Q63.5 58.4 63.4 58.7Q63.2 59.1 63.2 59.6L63.2 59.6Q63.2 60.2 63.3 60.6Q63.5 61.0 63.8 61.2Q64.2 61.5 64.7 61.5ZM75.4 63.1L75.4 63.1Q74.3 63.1 73.5 62.7Q72.8 62.3 72.3 61.4Q71.9 60.6 71.9 59.5L71.9 59.5Q71.9 58.4 72.3 57.6Q72.7 56.7 73.5 56.3Q74.3 55.8 75.3 55.8L75.3 55.8Q76.0 55.8 76.6 56.0Q77.2 56.3 77.7 56.7Q78.1 57.2 78.4 57.8Q78.7 58.5 78.7 59.4L78.7 59.4L78.7 59.9L73.8 59.9Q73.8 60.5 74.0 60.9L74.0 60.9Q74.2 61.3 74.6 61.5Q75.0 61.7 75.4 61.7L75.4 61.7Q75.8 61.7 76.1 61.6Q76.3 61.5 76.5 61.3Q76.7 61.1 76.8 60.9L76.8 60.9L78.5 61.2Q78.4 61.8 77.9 62.2Q77.5 62.7 76.9 62.9Q76.2 63.1 75.4 63.1ZM73.8 58.8L73.8 58.8L76.8 58.8Q76.8 58.4 76.7 58.1L76.7 58.1Q76.5 57.7 76.2 57.5Q75.8 57.2 75.3 57.2L75.3 57.2Q74.8 57.2 74.5 57.5Q74.2 57.7 74.0 58.1L74.0 58.1Q73.8 58.4 73.8 58.8ZM81.9 63L80.0 63L80.0 55.9L81.7 55.9L81.8 57.3Q81.9 56.9 82.2 56.6L82.2 56.6Q82.5 56.2 82.9 56.0Q83.3 55.8 83.8 55.8L83.8 55.8Q84.6 55.8 85.1 56.3L85.1 56.3Q85.4 56.7 85.6 57.4L85.6 57.4Q85.8 57.0 86.0 56.7L86.0 56.7Q86.4 56.2 86.9 56.0Q87.4 55.8 87.9 55.8L87.9 55.8Q88.6 55.8 89.1 56.1Q89.6 56.4 89.9 56.9Q90.2 57.4 90.2 58.2L90.2 58.2L90.2 63L88.3 63L88.3 58.6Q88.3 58.0 88.0 57.7Q87.6 57.4 87.2 57.4L87.2 57.4Q86.8 57.4 86.5 57.5Q86.3 57.7 86.1 58.0Q86.0 58.3 86.0 58.6L86.0 58.6L86.0 63L84.1 63L84.1 58.5Q84.1 58.0 83.8 57.7Q83.5 57.4 83.0 57.4L83.0 57.4Q82.7 57.4 82.4 57.5Q82.2 57.7 82.0 58.0Q81.9 58.3 81.9 58.7L81.9 58.7L81.9 63ZM93.8 63.1L93.8 63.1Q93.1 63.1 92.6 62.9Q92.1 62.7 91.7 62.2Q91.4 61.7 91.4 61.0L91.4 61.0Q91.4 60.4 91.7 60.0Q91.9 59.6 92.3 59.4Q92.6 59.1 93.1 59.0Q93.6 58.9 94.1 58.8L94.1 58.8Q94.7 58.8 95.1 58.7Q95.5 58.7 95.7 58.5Q95.8 58.4 95.8 58.2L95.8 58.2L95.8 58.2Q95.8 57.9 95.7 57.7Q95.6 57.4 95.3 57.3Q95.1 57.2 94.7 57.2L94.7 57.2Q94.4 57.2 94.1 57.3Q93.8 57.4 93.6 57.6Q93.5 57.8 93.4 58.0L93.4 58.0L91.6 57.8Q91.8 57.1 92.2 56.7Q92.7 56.3 93.3 56.0Q93.9 55.8 94.7 55.8L94.7 55.8Q95.3 55.8 95.8 56.0Q96.4 56.1 96.8 56.4Q97.2 56.7 97.5 57.1Q97.7 57.6 97.7 58.2L97.7 58.2L97.7 63L95.9 63L95.9 62.0L95.9 62.0Q95.7 62.3 95.4 62.6Q95.1 62.8 94.7 63.0Q94.3 63.1 93.8 63.1ZM94.3 61.8L94.3 61.8Q94.8 61.8 95.1 61.6Q95.5 61.4 95.7 61.1Q95.8 60.8 95.8 60.5L95.8 60.5L95.8 59.7Q95.8 59.8 95.6 59.8Q95.4 59.9 95.2 59.9Q95.0 59.9 94.8 60.0Q94.6 60.0 94.4 60.0L94.4 60.0Q94.1 60.1 93.8 60.2Q93.6 60.3 93.4 60.5Q93.3 60.7 93.3 61.0L93.3 61.0Q93.3 61.2 93.4 61.4Q93.5 61.6 93.8 61.7Q94.0 61.8 94.3 61.8ZM101.3 63L99.4 63L99.4 55.9L101.3 55.9L101.3 63ZM100.3 55.0L100.3 55.0Q99.9 55.0 99.6 54.7Q99.3 54.4 99.3 54.0L99.3 54.0Q99.3 53.6 99.6 53.3Q99.9 53.0 100.3 53.0L100.3 53.0Q100.7 53.0 101.1 53.3Q101.4 53.6 101.4 54.0L101.4 54.0Q101.4 54.4 101.1 54.7Q100.7 55.0 100.3 55.0ZM102.9 53.5L104.8 53.5L104.8 63L102.9 63L102.9 53.5ZM107.8 63.1L107.8 63.1Q107.3 63.1 107.0 62.8Q106.7 62.5 106.7 62.0L106.7 62.0Q106.7 61.6 107.0 61.3Q107.3 60.9 107.8 60.9L107.8 60.9Q108.2 60.9 108.5 61.3Q108.9 61.6 108.9 62.0L108.9 62.0Q108.9 62.5 108.5 62.8Q108.2 63.1 107.8 63.1ZM112.9 55.9L114.3 55.9L114.3 57.4L112.9 57.4L112.9 60.9Q112.9 61.3 113.1 61.4Q113.2 61.6 113.6 61.6L113.6 61.6Q113.7 61.6 113.9 61.6Q114.1 61.5 114.2 61.5L114.2 61.5L114.5 62.9Q114.2 63.0 113.8 63.1Q113.5 63.1 113.2 63.1L113.2 63.1Q112.2 63.1 111.6 62.6Q111.0 62.1 111.0 61.1L111.0 61.1L111.0 57.4L110.1 57.4L110.1 55.9L111.0 55.9L111.0 54.2L112.9 54.2L112.9 55.9ZM115.5 53.5L117.4 53.5L117.4 63L115.5 63L115.5 53.5ZM121.6 63.1L121.6 63.1Q120.8 63.1 120.2 62.7Q119.5 62.3 119.1 61.5Q118.7 60.6 118.7 59.5L118.7 59.5Q118.7 58.3 119.1 57.4Q119.5 56.6 120.2 56.2Q120.8 55.8 121.6 55.8L121.6 55.8Q122.2 55.8 122.6 56.0Q123.0 56.2 123.3 56.5Q123.5 56.8 123.6 57.1L123.6 57.1L123.7 57.1L123.7 53.5L125.6 53.5L125.6 63L123.7 63L123.7 61.9L123.6 61.9Q123.5 62.1 123.3 62.4Q123.0 62.7 122.6 62.9Q122.2 63.1 121.6 63.1ZM122.2 61.6L122.2 61.6Q122.7 61.6 123.0 61.3Q123.4 61.1 123.6 60.6Q123.7 60.1 123.7 59.5L123.7 59.5Q123.7 58.8 123.6 58.3Q123.4 57.9 123.0 57.6Q122.7 57.3 122.2 57.3L122.2 57.3Q121.7 57.3 121.4 57.6Q121.0 57.9 120.9 58.4Q120.7 58.8 120.7 59.5L120.7 59.5Q120.7 60.1 120.9 60.6Q121.0 61.0 121.4 61.3Q121.7 61.6 122.2 61.6Z "/></g><mask id="satori_om-id-1"><rect x="401" y="1" width="398" height="94" fill="#fff" mask="url(#satori_om-id)"/></mask><mask id="satori_om-id-1-0"><rect x="429" y="31" width="342" height="13" fill="#fff" mask="url(#satori_om-id)"/></mask><g mask="url(#satori_om-id)" clip-path="url(#satori_cp-id)"><path fill="#6e7f72" d="M431.9 35.4L429.4 35.4L429.4 34.0L435.9 34.0L435.9 35.4L433.5 35.4L433.5 42L431.9 42L431.9 35.4ZM440.5 42.1L440.5 42.1Q439.6 42.1 439.0 41.7Q438.3 41.4 437.9 40.7Q437.6 40.0 437.6 39.0L437.6 39.0Q437.6 38.1 437.9 37.4Q438.3 36.7 438.9 36.3Q439.6 35.9 440.5 35.9L440.5 35.9Q441.1 35.9 441.6 36.1Q442.1 36.3 442.5 36.7Q442.8 37.1 443.1 37.6Q443.3 38.2 443.3 39.0L443.3 39.0L443.3 39.4L439.2 39.4Q439.2 39.9 439.3 40.2L439.3 40.2Q439.5 40.5 439.8 40.7Q440.2 40.9 440.6 40.9L440.6 40.9Q440.9 40.9 441.1 40.8Q441.3 40.7 441.5 40.6Q441.6 40.4 441.7 40.2L441.7 40.2L443.2 40.5Q443.0 41.0 442.7 41.3Q442.3 41.7 441.8 41.9Q441.2 42.1 440.5 42.1ZM439.2 38.4L439.2 38.4L441.7 38.4Q441.7 38.1 441.6 37.9L441.6 37.9Q441.5 37.5 441.2 37.3Q440.9 37.1 440.5 37.1L440.5 37.1Q440.1 37.1 439.8 37.3Q439.5 37.5 439.3 37.8L439.3 37.8Q439.2 38.1 439.2 38.4ZM445.2 34.0L446.8 34.0L446.8 42L445.2 42L445.2 34.0ZM451.7 42.1L451.7 42.1Q450.8 42.1 450.1 41.7Q449.4 41.4 449.1 40.7Q448.7 40.0 448.7 39.0L448.7 39.0Q448.7 38.1 449.1 37.4Q449.4 36.7 450.1 36.3Q450.7 35.9 451.6 35.9L451.6 35.9Q452.2 35.9 452.7 36.1Q453.2 36.3 453.6 36.7Q454.0 37.1 454.2 37.6Q454.4 38.2 454.4 39.0L454.4 39.0L454.4 39.4L450.3 39.4Q450.3 39.9 450.5 40.2L450.5 40.2Q450.7 40.5 451.0 40.7Q451.3 40.9 451.7 40.9L451.7 40.9Q452.0 40.9 452.2 40.8Q452.4 40.7 452.6 40.6Q452.8 40.4 452.9 40.2L452.9 40.2L454.3 40.5Q454.2 41.0 453.8 41.3Q453.5 41.7 452.9 41.9Q452.4 42.1 451.7 42.1ZM450.3 38.4L450.3 38.4L452.9 38.4Q452.8 38.1 452.7 37.9L452.7 37.9Q452.6 37.5 452.3 37.3Q452.0 37.1 451.6 37.1L451.6 37.1Q451.2 37.1 450.9 37.3Q450.6 37.5 450.5 37.8L450.5 37.8Q450.3 38.1 450.3 38.4ZM459.0 44.4L459.0 44.4Q458.2 44.4 457.7 44.2Q457.1 44.0 456.8 43.7Q456.4 43.3 456.3 42.9L456.3 42.9L457.7 42.5Q457.7 42.7 457.9 42.8Q458.1 43.0 458.3 43.1Q458.6 43.2 459.0 43.2L459.0 43.2Q459.6 43.2 459.9 42.9Q460.3 42.6 460.3 42.0L460.3 42.0L460.3 40.9L460.2 40.9Q460.1 41.2 459.9 41.4Q459.7 41.6 459.3 41.8Q459.0 41.9 458.5 41.9L458.5 41.9Q457.8 41.9 457.3 41.6Q456.7 41.3 456.4 40.6Q456.1 40.0 456.1 39.0L456.1 39.0Q456.1 38.0 456.4 37.3Q456.7 36.6 457.3 36.3Q457.8 35.9 458.5 35.9L458.5 35.9Q459.0 35.9 459.4 36.1Q459.7 36.3 459.9 36.5Q460.1 36.8 460.2 37.0L460.2 37.0L460.3 37.0L460.3 36.0L461.9 36.0L461.9 42.0Q461.9 42.8 461.5 43.3Q461.1 43.8 460.5 44.1Q459.8 44.4 459.0 44.4ZM459.0 40.7L459.0 40.7Q459.4 40.7 459.7 40.5Q460.0 40.3 460.2 39.9Q460.3 39.5 460.3 39.0L460.3 39.0Q460.3 38.4 460.2 38.0Q460.0 37.6 459.7 37.4Q459.4 37.2 459.0 37.2L459.0 37.2Q458.6 37.2 458.3 37.4Q458.0 37.7 457.9 38.1Q457.7 38.5 457.7 39.0L457.7 39.0Q457.7 39.5 457.9 39.9Q458.0 40.3 458.3 40.5Q458.6 40.7 459.0 40.7ZM465.7 42L464.1 42L464.1 36.0L465.6 36.0L465.6 37.0L465.7 37.0Q465.9 36.5 466.2 36.2Q466.6 35.9 467.1 35.9L467.1 35.9Q467.3 35.9 467.4 35.9Q467.6 35.9 467.7 36.0L467.7 36.0L467.7 37.4Q467.6 37.4 467.3 37.3Q467.1 37.3 467.0 37.3L467.0 37.3Q466.6 37.3 466.3 37.5Q466.0 37.6 465.8 37.9Q465.7 38.2 465.7 38.6L465.7 38.6L465.7 42ZM471.0 42.1L471.0 42.1Q470.5 42.1 470.0 41.9Q469.5 41.7 469.3 41.3Q469.0 40.9 469.0 40.3L469.0 40.3Q469.0 39.8 469.2 39.5Q469.4 39.1 469.7 38.9Q470.0 38.7 470.4 38.6Q470.8 38.5 471.3 38.5L471.3 38.5Q471.8 38.4 472.1 38.4Q472.5 38.3 472.6 38.2Q472.7 38.1 472.7 37.9L472.7 37.9L472.7 37.9Q472.7 37.7 472.6 37.5Q472.5 37.3 472.3 37.2Q472.1 37.1 471.8 37.1L471.8 37.1Q471.5 37.1 471.3 37.2Q471.0 37.3 470.9 37.5Q470.7 37.6 470.7 37.8L470.7 37.8L469.2 37.6Q469.4 37.0 469.7 36.7Q470.1 36.3 470.6 36.1Q471.1 35.9 471.8 35.9L471.8 35.9Q472.3 35.9 472.8 36.0Q473.2 36.2 473.6 36.4Q473.9 36.6 474.1 37.0Q474.4 37.4 474.4 38.0L474.4 38.0L474.4 42L472.8 42L472.8 41.2L472.8 41.2Q472.6 41.4 472.4 41.7Q472.1 41.9 471.8 42.0Q471.5 42.1 471.0 42.1ZM471.5 41.0L471.5 41.0Q471.9 41.0 472.1 40.8Q472.4 40.7 472.6 40.4Q472.8 40.2 472.8 39.9L472.8 39.9L472.8 39.2Q472.7 39.3 472.5 39.3Q472.4 39.3 472.2 39.4Q472.0 39.4 471.9 39.4Q471.7 39.5 471.6 39.5L471.6 39.5Q471.3 39.5 471.0 39.6Q470.8 39.7 470.7 39.9Q470.6 40.0 470.6 40.3L470.6 40.3Q470.6 40.5 470.7 40.7Q470.8 40.8 471.0 40.9Q471.2 41.0 471.5 41.0ZM478.1 42L476.5 42L476.5 36.0L478.0 36.0L478.1 37.2Q478.2 36.8 478.4 36.6L478.4 36.6Q478.7 36.2 479.0 36.1Q479.4 35.9 479.8 35.9L479.8 35.9Q480.5 35.9 480.9 36.3L480.9 36.3Q481.2 36.6 481.4 37.2L481.4 37.2Q481.5 36.9 481.7 36.6L481.7 36.6Q482.0 36.3 482.4 36.1Q482.8 35.9 483.3 35.9L483.3 35.9Q483.8 35.9 484.3 36.1Q484.7 36.4 484.9 36.8Q485.2 37.3 485.2 38.0L485.2 38.0L485.2 42L483.6 42L483.6 38.3Q483.6 37.7 483.3 37.5Q483.0 37.3 482.6 37.3L482.6 37.3Q482.3 37.3 482.1 37.4Q481.9 37.5 481.8 37.8Q481.6 38.0 481.6 38.3L481.6 38.3L481.6 42L480.1 42L480.1 38.2Q480.1 37.8 479.8 37.5Q479.6 37.3 479.1 37.3L479.1 37.3Q478.9 37.3 478.6 37.4Q478.4 37.5 478.3 37.8Q478.1 38.0 478.1 38.4L478.1 38.4L478.1 42Z "/></g><mask id="satori_om-id-1-1"><rect x="429" y="50" width="342" height="16" fill="#fff" mask="url(#satori_om-id)"/></mask><g mask="url(#satori_om-id)" clip-path="url(#satori_cp-id)"><path fill="#b7c3b9" d="M435.7 65.7L435.7 65.7Q434.3 65.7 433.1 65.3Q432.0 64.9 431.2 64.1Q430.4 63.4 430.0 62.3Q429.6 61.2 429.6 59.7L429.6 59.7Q429.6 58.4 430.0 57.2Q430.4 56.1 431.2 55.3Q431.9 54.5 433.1 54.0Q434.2 53.6 435.7 53.6L435.7 53.6Q437.1 53.6 438.2 54.0Q439.3 54.4 440.0 55.2Q440.8 55.9 441.2 56.9Q441.6 57.9 441.6 59.1L441.6 59.1Q441.6 59.9 441.5 60.5Q441.3 61.2 441.0 61.7Q440.7 62.3 440.2 62.5Q439.7 62.8 439.0 62.8L439.0 62.8Q438.6 62.8 438.2 62.7Q437.8 62.6 437.6 62.4Q437.3 62.1 437.3 61.8L437.3 61.8L437.2 61.8Q437.1 62.2 436.6 62.5Q436.1 62.8 435.3 62.8L435.3 62.8Q434.4 62.8 433.8 62.4Q433.2 62.0 432.9 61.3Q432.6 60.6 432.6 59.7L432.6 59.7Q432.6 58.7 432.9 58.0Q433.3 57.3 433.9 56.9Q434.5 56.5 435.3 56.5L435.3 56.5Q436.0 56.5 436.4 56.7Q436.9 56.9 437.0 57.3L437.0 57.3L437.1 57.3L437.1 56.6L438.4 56.6L438.4 60.9Q438.4 61.2 438.6 61.4Q438.7 61.6 439.0 61.6L439.0 61.6Q439.4 61.6 439.6 61.3Q439.9 61.1 440.0 60.5Q440.1 60.0 440.1 59.2L440.1 59.2Q440.1 58.3 439.8 57.5Q439.5 56.7 439.0 56.2Q438.5 55.6 437.7 55.4Q436.9 55.1 435.8 55.1L435.8 55.1Q434.7 55.1 433.8 55.4Q433.0 55.7 432.4 56.3Q431.8 56.9 431.5 57.7Q431.2 58.6 431.2 59.7L431.2 59.7Q431.2 60.8 431.5 61.6Q431.8 62.5 432.4 63.1Q433.0 63.7 433.9 64.0Q434.7 64.3 435.9 64.3L435.9 64.3Q436.4 64.3 436.9 64.2Q437.4 64.1 437.8 64.0Q438.1 63.9 438.4 63.8L438.4 63.8L438.9 65.1Q438.6 65.2 438.1 65.4Q437.6 65.5 437.0 65.6Q436.4 65.7 435.7 65.7ZM435.5 61.5L435.5 61.5Q436.0 61.5 436.4 61.3Q436.7 61.1 436.9 60.7Q437.0 60.2 437.0 59.6L437.0 59.6Q437.0 59.0 436.9 58.7Q436.7 58.3 436.3 58.1Q436.0 57.9 435.5 57.9L435.5 57.9Q435.0 57.9 434.7 58.2Q434.3 58.4 434.2 58.7Q434.0 59.1 434.0 59.6L434.0 59.6Q434.0 60.2 434.2 60.6Q434.3 61.0 434.6 61.2Q435.0 61.5 435.5 61.5ZM445.5 63.1L445.5 63.1Q444.7 63.1 444.2 62.8Q443.6 62.4 443.3 61.8Q443.0 61.2 443.0 60.4L443.0 60.4L443.0 55.9L444.9 55.9L444.9 60.1Q444.9 60.7 445.3 61.1Q445.6 61.5 446.2 61.5L446.2 61.5Q446.6 61.5 446.9 61.3Q447.2 61.1 447.4 60.8Q447.6 60.5 447.6 60.0L447.6 60.0L447.6 55.9L449.5 55.9L449.5 63L447.7 63L447.7 61.5Q447.4 62.2 446.9 62.6L446.9 62.6Q446.3 63.1 445.5 63.1ZM453.9 63.1L453.9 63.1Q453.1 63.1 452.4 62.9Q451.8 62.7 451.3 62.2Q450.9 61.7 450.8 61.1L450.8 61.1L452.6 60.8Q452.7 61.2 453.1 61.5Q453.4 61.7 454.0 61.7L454.0 61.7Q454.5 61.7 454.9 61.5Q455.2 61.3 455.2 61.0L455.2 61.0Q455.2 60.7 454.9 60.6Q454.7 60.4 454.3 60.3L454.3 60.3L453.0 60.0Q452.0 59.8 451.5 59.3Q451.0 58.8 451.0 58.0L451.0 58.0Q451.0 57.3 451.4 56.8Q451.7 56.3 452.4 56.1Q453.1 55.8 454.0 55.8L454.0 55.8Q454.8 55.8 455.4 56.0Q456.0 56.3 456.4 56.7Q456.8 57.1 456.9 57.7L456.9 57.7L455.2 58.0Q455.1 57.6 454.8 57.4Q454.5 57.2 454.0 57.2L454.0 57.2Q453.5 57.2 453.2 57.4Q452.9 57.6 452.9 57.9L452.9 57.9Q452.9 58.2 453.1 58.4Q453.3 58.5 453.8 58.6L453.8 58.6L455.1 58.9Q456.1 59.1 456.6 59.6Q457.1 60.0 457.1 60.8L457.1 60.8Q457.1 61.5 456.7 62.0Q456.3 62.6 455.6 62.8Q454.9 63.1 453.9 63.1ZM461.6 63.1L461.6 63.1Q460.5 63.1 459.7 62.7Q458.9 62.3 458.5 61.4Q458.1 60.6 458.1 59.5L458.1 59.5Q458.1 58.4 458.5 57.6Q458.9 56.7 459.7 56.3Q460.5 55.8 461.5 55.8L461.5 55.8Q462.2 55.8 462.8 56.0Q463.4 56.3 463.9 56.7Q464.3 57.2 464.6 57.8Q464.8 58.5 464.8 59.4L464.8 59.4L464.8 59.9L460.0 59.9Q460.0 60.5 460.2 60.9L460.2 60.9Q460.4 61.3 460.8 61.5Q461.1 61.7 461.6 61.7L461.6 61.7Q462.0 61.7 462.2 61.6Q462.5 61.5 462.7 61.3Q462.9 61.1 463.0 60.9L463.0 60.9L464.7 61.2Q464.6 61.8 464.1 62.2Q463.7 62.7 463.1 62.9Q462.4 63.1 461.6 63.1ZM460.0 58.8L460.0 58.8L463.0 58.8Q463.0 58.4 462.9 58.1L462.9 58.1Q462.7 57.7 462.3 57.5Q462.0 57.2 461.5 57.2L461.5 57.2Q461.0 57.2 460.7 57.5Q460.3 57.7 460.2 58.1L460.2 58.1Q460.0 58.4 460.0 58.8ZM468.0 63L466.1 63L466.1 55.9L468.0 55.9L468.0 57.1L468.1 57.1Q468.3 56.5 468.7 56.1Q469.2 55.8 469.8 55.8L469.8 55.8Q469.9 55.8 470.1 55.8Q470.3 55.8 470.4 55.9L470.4 55.9L470.4 57.6Q470.3 57.5 470.0 57.5Q469.8 57.5 469.6 57.5L469.6 57.5Q469.1 57.5 468.8 57.7Q468.4 57.9 468.2 58.2Q468.0 58.5 468.0 59.0L468.0 59.0L468.0 63ZM473.3 58.9L473.3 58.9L473.3 63L471.4 63L471.4 55.9L473.2 55.9L473.3 57.4Q473.5 56.7 474.0 56.3L474.0 56.3Q474.6 55.8 475.5 55.8L475.5 55.8Q476.2 55.8 476.8 56.1Q477.3 56.5 477.6 57.1Q477.9 57.7 477.9 58.5L477.9 58.5L477.9 63L476.0 63L476.0 58.8Q476.0 58.2 475.7 57.8Q475.3 57.4 474.7 57.4L474.7 57.4Q474.3 57.4 474.0 57.6Q473.7 57.8 473.5 58.1Q473.3 58.4 473.3 58.9ZM481.5 63.1L481.5 63.1Q480.8 63.1 480.3 62.9Q479.8 62.7 479.5 62.2Q479.1 61.7 479.1 61.0L479.1 61.0Q479.1 60.4 479.4 60.0Q479.6 59.6 480.0 59.4Q480.3 59.1 480.8 59.0Q481.3 58.9 481.8 58.8L481.8 58.8Q482.4 58.8 482.8 58.7Q483.2 58.7 483.4 58.5Q483.5 58.4 483.5 58.2L483.5 58.2L483.5 58.2Q483.5 57.9 483.4 57.7Q483.3 57.4 483.0 57.3Q482.8 57.2 482.4 57.2L482.4 57.2Q482.1 57.2 481.8 57.3Q481.5 57.4 481.3 57.6Q481.2 57.8 481.1 58.0L481.1 58.0L479.3 57.8Q479.5 57.1 480.0 56.7Q480.4 56.3 481.0 56.0Q481.6 55.8 482.4 55.8L482.4 55.8Q483.0 55.8 483.6 56.0Q484.1 56.1 484.5 56.4Q484.9 56.7 485.2 57.1Q485.4 57.6 485.4 58.2L485.4 58.2L485.4 63L483.6 63L483.6 62.0L483.6 62.0Q483.4 62.3 483.1 62.6Q482.8 62.8 482.4 63.0Q482.0 63.1 481.5 63.1ZM482.0 61.8L482.0 61.8Q482.5 61.8 482.8 61.6Q483.2 61.4 483.4 61.1Q483.6 60.8 483.6 60.5L483.6 60.5L483.6 59.7Q483.5 59.8 483.3 59.8Q483.1 59.9 482.9 59.9Q482.7 59.9 482.5 60.0Q482.3 60.0 482.1 60.0L482.1 60.0Q481.8 60.1 481.5 60.2Q481.3 60.3 481.1 60.5Q481.0 60.7 481.0 61.0L481.0 61.0Q481.0 61.2 481.1 61.4Q481.3 61.6 481.5 61.7Q481.7 61.8 482.0 61.8ZM489.0 63L487.1 63L487.1 55.9L488.8 55.9L488.9 57.3Q489.1 56.9 489.3 56.6L489.3 56.6Q489.6 56.2 490.0 56.0Q490.5 55.8 490.9 55.8L490.9 55.8Q491.7 55.8 492.2 56.3L492.2 56.3Q492.6 56.7 492.8 57.4L492.8 57.4Q492.9 57.0 493.2 56.7L493.2 56.7Q493.5 56.2 494.0 56.0Q494.5 55.8 495.0 55.8L495.0 55.8Q495.7 55.8 496.2 56.1Q496.7 56.4 497.0 56.9Q497.3 57.4 497.3 58.2L497.3 58.2L497.3 63L495.4 63L495.4 58.6Q495.4 58.0 495.1 57.7Q494.8 57.4 494.3 57.4L494.3 57.4Q493.9 57.4 493.7 57.5Q493.4 57.7 493.3 58.0Q493.1 58.3 493.1 58.6L493.1 58.6L493.1 63L491.3 63L491.3 58.5Q491.3 58.0 491.0 57.7Q490.7 57.4 490.2 57.4L490.2 57.4Q489.8 57.4 489.6 57.5Q489.3 57.7 489.1 58.0Q489.0 58.3 489.0 58.7L489.0 58.7L489.0 63ZM502.1 63.1L502.1 63.1Q501.1 63.1 500.3 62.7Q499.5 62.3 499.1 61.4Q498.6 60.6 498.6 59.5L498.6 59.5Q498.6 58.4 499.1 57.6Q499.5 56.7 500.2 56.3Q501.0 55.8 502.0 55.8L502.0 55.8Q502.7 55.8 503.4 56.0Q504.0 56.3 504.4 56.7Q504.9 57.2 505.1 57.8Q505.4 58.5 505.4 59.4L505.4 59.4L505.4 59.9L500.5 59.9Q500.5 60.5 500.7 60.9L500.7 60.9Q500.9 61.3 501.3 61.5Q501.7 61.7 502.2 61.7L502.2 61.7Q502.5 61.7 502.8 61.6Q503.1 61.5 503.3 61.3Q503.4 61.1 503.5 60.9L503.5 60.9L505.3 61.2Q505.1 61.8 504.7 62.2Q504.3 62.7 503.6 62.9Q503.0 63.1 502.1 63.1ZM500.5 58.8L500.5 58.8L503.5 58.8Q503.5 58.4 503.4 58.1L503.4 58.1Q503.2 57.7 502.9 57.5Q502.6 57.2 502.1 57.2L502.1 57.2Q501.6 57.2 501.2 57.5Q500.9 57.7 500.7 58.1L500.7 58.1Q500.6 58.4 500.5 58.8Z "/></g></svg>